<?xml version="1.0" encoding="utf-8" standalone="no"?>
<!DOCTYPE svg PUBLIC "-//W3C//DTD SVG 1.1//EN"
  "http://www.w3.org/Graphics/SVG/1.1/DTD/svg11.dtd">
<svg xmlns:xlink="http://www.w3.org/1999/xlink" width="847.94047pt" height="416.138437pt" viewBox="0 0 847.94047 416.138437" xmlns="http://www.w3.org/2000/svg" version="1.1">
 <metadata>
  <rdf:RDF xmlns:dc="http://purl.org/dc/elements/1.1/" xmlns:cc="http://creativecommons.org/ns#" xmlns:rdf="http://www.w3.org/1999/02/22-rdf-syntax-ns#">
   <cc:Work>
    <dc:type rdf:resource="http://purl.org/dc/dcmitype/StillImage"/>
    <dc:date>2025-11-19T08:56:29.580514</dc:date>
    <dc:format>image/svg+xml</dc:format>
    <dc:creator>
     <cc:Agent>
      <dc:title>Matplotlib v3.10.7, https://matplotlib.org/</dc:title>
     </cc:Agent>
    </dc:creator>
   </cc:Work>
  </rdf:RDF>
 </metadata>
 <defs>
  <style type="text/css">*{stroke-linejoin: round; stroke-linecap: butt}</style>
 </defs>
 <g id="figure_1">
  <g id="patch_1">
   <path d="M 0 416.138437 
L 847.94047 416.138437 
L 847.94047 0 
L 0 0 
L 0 416.138437 
z
" style="fill: none"/>
  </g>
  <g id="axes_1">
   <g id="patch_2">
    <path d="M 50.06875 372.46 
L 840.74047 372.46 
L 840.74047 7.2 
L 50.06875 7.2 
L 50.06875 372.46 
z
" style="fill: none"/>
   </g>
   <g id="matplotlib.axis_1">
    <g id="xtick_1">
     <g id="line2d_1">
      <defs>
       <path id="m5f10a11582" d="M 0 0 
L 0 6 
" style="stroke: #262626; stroke-width: 1.25"/>
      </defs>
      <g>
       <use xlink:href="#m5f10a11582" x="106.842938" y="372.46" style="fill: #262626; stroke: #262626; stroke-width: 1.25"/>
      </g>
     </g>
     <g id="text_1">
      <!-- 2010 -->
      <g style="fill: #262626" transform="translate(94.265126 390.318281) scale(0.11 -0.11)">
       <defs>
        <path id="OpenSans-Regular-32" d="M 3309 0 
L 316 0 
L 316 434 
L 1538 1675 
Q 1878 2019 2111 2287 
Q 2344 2556 2466 2817 
Q 2588 3078 2588 3391 
Q 2588 3778 2358 3983 
Q 2128 4188 1753 4188 
Q 1425 4188 1172 4075 
Q 919 3963 653 3756 
L 375 4106 
Q 556 4259 770 4378 
Q 984 4497 1229 4565 
Q 1475 4634 1753 4634 
Q 2175 4634 2481 4487 
Q 2788 4341 2955 4069 
Q 3122 3797 3122 3422 
Q 3122 3059 2978 2748 
Q 2834 2438 2575 2133 
Q 2316 1828 1969 1488 
L 975 497 
L 975 475 
L 3309 475 
L 3309 0 
z
" transform="scale(0.015625)"/>
        <path id="OpenSans-Regular-30" d="M 3334 2291 
Q 3334 1734 3250 1296 
Q 3166 859 2984 556 
Q 2803 253 2515 95 
Q 2228 -63 1825 -63 
Q 1316 -63 983 215 
Q 650 494 486 1020 
Q 322 1547 322 2291 
Q 322 3022 470 3548 
Q 619 4075 950 4358 
Q 1281 4641 1825 4641 
Q 2341 4641 2675 4361 
Q 3009 4081 3171 3554 
Q 3334 3028 3334 2291 
z
M 844 2291 
Q 844 1653 941 1228 
Q 1038 803 1255 592 
Q 1472 381 1825 381 
Q 2178 381 2395 590 
Q 2613 800 2711 1225 
Q 2809 1650 2809 2291 
Q 2809 2919 2712 3342 
Q 2616 3766 2400 3980 
Q 2184 4194 1825 4194 
Q 1466 4194 1250 3980 
Q 1034 3766 939 3342 
Q 844 2919 844 2291 
z
" transform="scale(0.015625)"/>
        <path id="OpenSans-Regular-31" d="M 2247 0 
L 1741 0 
L 1741 3238 
Q 1741 3422 1742 3555 
Q 1744 3688 1748 3798 
Q 1753 3909 1763 4025 
Q 1666 3925 1581 3854 
Q 1497 3784 1372 3681 
L 850 3263 
L 578 3616 
L 1816 4569 
L 2247 4569 
L 2247 0 
z
" transform="scale(0.015625)"/>
       </defs>
       <use xlink:href="#OpenSans-Regular-32"/>
       <use xlink:href="#OpenSans-Regular-30" transform="translate(57.177734 0)"/>
       <use xlink:href="#OpenSans-Regular-31" transform="translate(114.355469 0)"/>
       <use xlink:href="#OpenSans-Regular-30" transform="translate(171.533203 0)"/>
      </g>
     </g>
    </g>
    <g id="xtick_2">
     <g id="line2d_2">
      <g>
       <use xlink:href="#m5f10a11582" x="158.929349" y="372.46" style="fill: #262626; stroke: #262626; stroke-width: 1.25"/>
      </g>
     </g>
     <g id="text_2">
      <!-- 2011 -->
      <g style="fill: #262626" transform="translate(146.351537 390.318281) scale(0.11 -0.11)">
       <use xlink:href="#OpenSans-Regular-32"/>
       <use xlink:href="#OpenSans-Regular-30" transform="translate(57.177734 0)"/>
       <use xlink:href="#OpenSans-Regular-31" transform="translate(114.355469 0)"/>
       <use xlink:href="#OpenSans-Regular-31" transform="translate(171.533203 0)"/>
      </g>
     </g>
    </g>
    <g id="xtick_3">
     <g id="line2d_3">
      <g>
       <use xlink:href="#m5f10a11582" x="211.01576" y="372.46" style="fill: #262626; stroke: #262626; stroke-width: 1.25"/>
      </g>
     </g>
     <g id="text_3">
      <!-- 2015 -->
      <g style="fill: #262626" transform="translate(198.437948 390.318281) scale(0.11 -0.11)">
       <defs>
        <path id="OpenSans-Regular-35" d="M 1759 2794 
Q 2225 2794 2569 2636 
Q 2913 2478 3102 2178 
Q 3291 1878 3291 1450 
Q 3291 981 3087 642 
Q 2884 303 2503 120 
Q 2122 -63 1591 -63 
Q 1234 -63 928 0 
Q 622 63 413 188 
L 413 681 
Q 641 544 966 462 
Q 1291 381 1597 381 
Q 1944 381 2205 492 
Q 2466 603 2611 829 
Q 2756 1056 2756 1400 
Q 2756 1856 2476 2104 
Q 2197 2353 1594 2353 
Q 1400 2353 1169 2322 
Q 938 2291 788 2253 
L 525 2425 
L 700 4569 
L 2972 4569 
L 2972 4094 
L 1144 4094 
L 1028 2716 
Q 1147 2741 1334 2767 
Q 1522 2794 1759 2794 
z
" transform="scale(0.015625)"/>
       </defs>
       <use xlink:href="#OpenSans-Regular-32"/>
       <use xlink:href="#OpenSans-Regular-30" transform="translate(57.177734 0)"/>
       <use xlink:href="#OpenSans-Regular-31" transform="translate(114.355469 0)"/>
       <use xlink:href="#OpenSans-Regular-35" transform="translate(171.533203 0)"/>
      </g>
     </g>
    </g>
    <g id="xtick_4">
     <g id="line2d_4">
      <g>
       <use xlink:href="#m5f10a11582" x="263.102171" y="372.46" style="fill: #262626; stroke: #262626; stroke-width: 1.25"/>
      </g>
     </g>
     <g id="text_4">
      <!-- 2016 -->
      <g style="fill: #262626" transform="translate(250.524359 390.318281) scale(0.11 -0.11)">
       <defs>
        <path id="OpenSans-Regular-36" d="M 363 1953 
Q 363 2366 420 2759 
Q 478 3153 615 3492 
Q 753 3831 990 4087 
Q 1228 4344 1583 4489 
Q 1938 4634 2434 4634 
Q 2575 4634 2737 4620 
Q 2900 4606 3006 4575 
L 3006 4128 
Q 2891 4169 2742 4187 
Q 2594 4206 2444 4206 
Q 1863 4206 1530 3953 
Q 1197 3700 1050 3267 
Q 903 2834 881 2294 
L 916 2294 
Q 1013 2450 1163 2576 
Q 1313 2703 1527 2778 
Q 1741 2853 2025 2853 
Q 2425 2853 2723 2690 
Q 3022 2528 3186 2218 
Q 3350 1909 3350 1469 
Q 3350 997 3175 653 
Q 3000 309 2676 123 
Q 2353 -63 1906 -63 
Q 1572 -63 1290 65 
Q 1009 194 801 447 
Q 594 700 478 1076 
Q 363 1453 363 1953 
z
M 1900 375 
Q 2325 375 2581 647 
Q 2838 919 2838 1469 
Q 2838 1919 2609 2181 
Q 2381 2444 1922 2444 
Q 1609 2444 1378 2314 
Q 1147 2184 1019 1987 
Q 891 1791 891 1588 
Q 891 1381 952 1168 
Q 1013 956 1138 775 
Q 1263 594 1453 484 
Q 1644 375 1900 375 
z
" transform="scale(0.015625)"/>
       </defs>
       <use xlink:href="#OpenSans-Regular-32"/>
       <use xlink:href="#OpenSans-Regular-30" transform="translate(57.177734 0)"/>
       <use xlink:href="#OpenSans-Regular-31" transform="translate(114.355469 0)"/>
       <use xlink:href="#OpenSans-Regular-36" transform="translate(171.533203 0)"/>
      </g>
     </g>
    </g>
    <g id="xtick_5">
     <g id="line2d_5">
      <g>
       <use xlink:href="#m5f10a11582" x="315.188582" y="372.46" style="fill: #262626; stroke: #262626; stroke-width: 1.25"/>
      </g>
     </g>
     <g id="text_5">
      <!-- 2017 -->
      <g style="fill: #262626" transform="translate(302.61077 390.318281) scale(0.11 -0.11)">
       <defs>
        <path id="OpenSans-Regular-37" d="M 906 0 
L 2781 4094 
L 291 4094 
L 291 4569 
L 3338 4569 
L 3338 4169 
L 1475 0 
L 906 0 
z
" transform="scale(0.015625)"/>
       </defs>
       <use xlink:href="#OpenSans-Regular-32"/>
       <use xlink:href="#OpenSans-Regular-30" transform="translate(57.177734 0)"/>
       <use xlink:href="#OpenSans-Regular-31" transform="translate(114.355469 0)"/>
       <use xlink:href="#OpenSans-Regular-37" transform="translate(171.533203 0)"/>
      </g>
     </g>
    </g>
    <g id="xtick_6">
     <g id="line2d_6">
      <g>
       <use xlink:href="#m5f10a11582" x="367.274993" y="372.46" style="fill: #262626; stroke: #262626; stroke-width: 1.25"/>
      </g>
     </g>
     <g id="text_6">
      <!-- 2018 -->
      <g style="fill: #262626" transform="translate(354.697181 390.318281) scale(0.11 -0.11)">
       <defs>
        <path id="OpenSans-Regular-38" d="M 1825 4634 
Q 2222 4634 2528 4509 
Q 2834 4384 3007 4142 
Q 3181 3900 3181 3547 
Q 3181 3269 3061 3061 
Q 2941 2853 2737 2698 
Q 2534 2544 2288 2422 
Q 2581 2288 2817 2119 
Q 3053 1950 3190 1722 
Q 3328 1494 3328 1181 
Q 3328 797 3142 517 
Q 2956 238 2622 87 
Q 2288 -63 1838 -63 
Q 1353 -63 1014 82 
Q 675 228 498 501 
Q 322 775 322 1159 
Q 322 1475 456 1708 
Q 591 1941 812 2109 
Q 1034 2278 1297 2394 
Q 1069 2519 880 2678 
Q 691 2838 580 3052 
Q 469 3266 469 3550 
Q 469 3897 645 4139 
Q 822 4381 1130 4507 
Q 1438 4634 1825 4634 
z
M 831 1156 
Q 831 806 1078 579 
Q 1325 353 1825 353 
Q 2300 353 2559 579 
Q 2819 806 2819 1175 
Q 2819 1403 2700 1576 
Q 2581 1750 2362 1887 
Q 2144 2025 1847 2138 
L 1734 2178 
Q 1447 2059 1245 1914 
Q 1044 1769 937 1584 
Q 831 1400 831 1156 
z
M 1819 4209 
Q 1450 4209 1215 4032 
Q 981 3856 981 3525 
Q 981 3288 1095 3123 
Q 1209 2959 1406 2842 
Q 1603 2725 1847 2625 
Q 2084 2725 2268 2845 
Q 2453 2966 2559 3131 
Q 2666 3297 2666 3528 
Q 2666 3859 2433 4034 
Q 2200 4209 1819 4209 
z
" transform="scale(0.015625)"/>
       </defs>
       <use xlink:href="#OpenSans-Regular-32"/>
       <use xlink:href="#OpenSans-Regular-30" transform="translate(57.177734 0)"/>
       <use xlink:href="#OpenSans-Regular-31" transform="translate(114.355469 0)"/>
       <use xlink:href="#OpenSans-Regular-38" transform="translate(171.533203 0)"/>
      </g>
     </g>
    </g>
    <g id="xtick_7">
     <g id="line2d_7">
      <g>
       <use xlink:href="#m5f10a11582" x="419.361404" y="372.46" style="fill: #262626; stroke: #262626; stroke-width: 1.25"/>
      </g>
     </g>
     <g id="text_7">
      <!-- 2019 -->
      <g style="fill: #262626" transform="translate(406.783592 390.318281) scale(0.11 -0.11)">
       <defs>
        <path id="OpenSans-Regular-39" d="M 3316 2622 
Q 3316 2206 3258 1812 
Q 3200 1419 3061 1078 
Q 2922 738 2684 481 
Q 2447 225 2089 79 
Q 1731 -66 1234 -66 
Q 1100 -66 928 -48 
Q 756 -31 647 0 
L 647 450 
Q 763 409 919 386 
Q 1075 363 1225 363 
Q 1809 363 2143 614 
Q 2478 866 2625 1298 
Q 2772 1731 2791 2272 
L 2753 2272 
Q 2659 2122 2507 1995 
Q 2356 1869 2140 1792 
Q 1925 1716 1638 1716 
Q 1241 1716 945 1878 
Q 650 2041 486 2350 
Q 322 2659 322 3097 
Q 322 3569 501 3914 
Q 681 4259 1006 4446 
Q 1331 4634 1772 4634 
Q 2109 4634 2390 4506 
Q 2672 4378 2880 4123 
Q 3088 3869 3202 3494 
Q 3316 3119 3316 2622 
z
M 1772 4194 
Q 1356 4194 1098 3922 
Q 841 3650 841 3103 
Q 841 2650 1062 2387 
Q 1284 2125 1747 2125 
Q 2066 2125 2298 2253 
Q 2531 2381 2657 2578 
Q 2784 2775 2784 2981 
Q 2784 3188 2723 3400 
Q 2663 3613 2538 3792 
Q 2413 3972 2222 4083 
Q 2031 4194 1772 4194 
z
" transform="scale(0.015625)"/>
       </defs>
       <use xlink:href="#OpenSans-Regular-32"/>
       <use xlink:href="#OpenSans-Regular-30" transform="translate(57.177734 0)"/>
       <use xlink:href="#OpenSans-Regular-31" transform="translate(114.355469 0)"/>
       <use xlink:href="#OpenSans-Regular-39" transform="translate(171.533203 0)"/>
      </g>
     </g>
    </g>
    <g id="xtick_8">
     <g id="line2d_8">
      <g>
       <use xlink:href="#m5f10a11582" x="471.447815" y="372.46" style="fill: #262626; stroke: #262626; stroke-width: 1.25"/>
      </g>
     </g>
     <g id="text_8">
      <!-- 2020 -->
      <g style="fill: #262626" transform="translate(458.870003 390.318281) scale(0.11 -0.11)">
       <use xlink:href="#OpenSans-Regular-32"/>
       <use xlink:href="#OpenSans-Regular-30" transform="translate(57.177734 0)"/>
       <use xlink:href="#OpenSans-Regular-32" transform="translate(114.355469 0)"/>
       <use xlink:href="#OpenSans-Regular-30" transform="translate(171.533203 0)"/>
      </g>
     </g>
    </g>
    <g id="xtick_9">
     <g id="line2d_9">
      <g>
       <use xlink:href="#m5f10a11582" x="523.534226" y="372.46" style="fill: #262626; stroke: #262626; stroke-width: 1.25"/>
      </g>
     </g>
     <g id="text_9">
      <!-- 2021 -->
      <g style="fill: #262626" transform="translate(510.956414 390.318281) scale(0.11 -0.11)">
       <use xlink:href="#OpenSans-Regular-32"/>
       <use xlink:href="#OpenSans-Regular-30" transform="translate(57.177734 0)"/>
       <use xlink:href="#OpenSans-Regular-32" transform="translate(114.355469 0)"/>
       <use xlink:href="#OpenSans-Regular-31" transform="translate(171.533203 0)"/>
      </g>
     </g>
    </g>
    <g id="xtick_10">
     <g id="line2d_10">
      <g>
       <use xlink:href="#m5f10a11582" x="575.620637" y="372.46" style="fill: #262626; stroke: #262626; stroke-width: 1.25"/>
      </g>
     </g>
     <g id="text_10">
      <!-- 2022 -->
      <g style="fill: #262626" transform="translate(563.042825 390.318281) scale(0.11 -0.11)">
       <use xlink:href="#OpenSans-Regular-32"/>
       <use xlink:href="#OpenSans-Regular-30" transform="translate(57.177734 0)"/>
       <use xlink:href="#OpenSans-Regular-32" transform="translate(114.355469 0)"/>
       <use xlink:href="#OpenSans-Regular-32" transform="translate(171.533203 0)"/>
      </g>
     </g>
    </g>
    <g id="xtick_11">
     <g id="line2d_11">
      <g>
       <use xlink:href="#m5f10a11582" x="627.707048" y="372.46" style="fill: #262626; stroke: #262626; stroke-width: 1.25"/>
      </g>
     </g>
     <g id="text_11">
      <!-- 2023 -->
      <g style="fill: #262626" transform="translate(615.129236 390.318281) scale(0.11 -0.11)">
       <defs>
        <path id="OpenSans-Regular-33" d="M 3141 3503 
Q 3141 3197 3022 2972 
Q 2903 2747 2690 2605 
Q 2478 2463 2191 2406 
L 2191 2381 
Q 2734 2313 3007 2031 
Q 3281 1750 3281 1294 
Q 3281 897 3095 590 
Q 2909 284 2526 110 
Q 2144 -63 1547 -63 
Q 1184 -63 876 -5 
Q 569 53 288 188 
L 288 675 
Q 572 534 906 454 
Q 1241 375 1553 375 
Q 2178 375 2456 623 
Q 2734 872 2734 1303 
Q 2734 1600 2579 1783 
Q 2425 1966 2136 2052 
Q 1847 2138 1441 2138 
L 984 2138 
L 984 2581 
L 1444 2581 
Q 1816 2581 2075 2690 
Q 2334 2800 2470 2998 
Q 2606 3197 2606 3469 
Q 2606 3816 2375 4005 
Q 2144 4194 1747 4194 
Q 1503 4194 1303 4144 
Q 1103 4094 928 4006 
Q 753 3919 578 3803 
L 316 4159 
Q 566 4353 925 4493 
Q 1284 4634 1741 4634 
Q 2441 4634 2791 4315 
Q 3141 3997 3141 3503 
z
" transform="scale(0.015625)"/>
       </defs>
       <use xlink:href="#OpenSans-Regular-32"/>
       <use xlink:href="#OpenSans-Regular-30" transform="translate(57.177734 0)"/>
       <use xlink:href="#OpenSans-Regular-32" transform="translate(114.355469 0)"/>
       <use xlink:href="#OpenSans-Regular-33" transform="translate(171.533203 0)"/>
      </g>
     </g>
    </g>
    <g id="xtick_12">
     <g id="line2d_12">
      <g>
       <use xlink:href="#m5f10a11582" x="679.793459" y="372.46" style="fill: #262626; stroke: #262626; stroke-width: 1.25"/>
      </g>
     </g>
     <g id="text_12">
      <!-- 2024 -->
      <g style="fill: #262626" transform="translate(667.215647 390.318281) scale(0.11 -0.11)">
       <defs>
        <path id="OpenSans-Regular-34" d="M 3538 1059 
L 2853 1059 
L 2853 0 
L 2347 0 
L 2347 1059 
L 138 1059 
L 138 1497 
L 2313 4594 
L 2853 4594 
L 2853 1528 
L 3538 1528 
L 3538 1059 
z
M 2347 1528 
L 2347 3022 
Q 2347 3194 2350 3333 
Q 2353 3472 2359 3592 
Q 2366 3713 2370 3822 
Q 2375 3931 2378 4038 
L 2353 4038 
Q 2294 3913 2217 3773 
Q 2141 3634 2063 3525 
L 653 1528 
L 2347 1528 
z
" transform="scale(0.015625)"/>
       </defs>
       <use xlink:href="#OpenSans-Regular-32"/>
       <use xlink:href="#OpenSans-Regular-30" transform="translate(57.177734 0)"/>
       <use xlink:href="#OpenSans-Regular-32" transform="translate(114.355469 0)"/>
       <use xlink:href="#OpenSans-Regular-34" transform="translate(171.533203 0)"/>
      </g>
     </g>
    </g>
    <g id="xtick_13">
     <g id="line2d_13">
      <g>
       <use xlink:href="#m5f10a11582" x="731.87987" y="372.46" style="fill: #262626; stroke: #262626; stroke-width: 1.25"/>
      </g>
     </g>
     <g id="text_13">
      <!-- 2025 -->
      <g style="fill: #262626" transform="translate(719.302058 390.318281) scale(0.11 -0.11)">
       <use xlink:href="#OpenSans-Regular-32"/>
       <use xlink:href="#OpenSans-Regular-30" transform="translate(57.177734 0)"/>
       <use xlink:href="#OpenSans-Regular-32" transform="translate(114.355469 0)"/>
       <use xlink:href="#OpenSans-Regular-35" transform="translate(171.533203 0)"/>
      </g>
     </g>
    </g>
    <g id="xtick_14">
     <g id="line2d_14">
      <g>
       <use xlink:href="#m5f10a11582" x="783.966282" y="372.46" style="fill: #262626; stroke: #262626; stroke-width: 1.25"/>
      </g>
     </g>
     <g id="text_14">
      <!-- 2026 -->
      <g style="fill: #262626" transform="translate(771.388469 390.318281) scale(0.11 -0.11)">
       <use xlink:href="#OpenSans-Regular-32"/>
       <use xlink:href="#OpenSans-Regular-30" transform="translate(57.177734 0)"/>
       <use xlink:href="#OpenSans-Regular-32" transform="translate(114.355469 0)"/>
       <use xlink:href="#OpenSans-Regular-36" transform="translate(171.533203 0)"/>
      </g>
     </g>
    </g>
    <g id="text_15">
     <!-- Publication Year -->
     <g style="fill: #262626" transform="translate(400.19461 406.067812) scale(0.12 -0.12)">
      <defs>
       <path id="OpenSans-Regular-50" d="M 1819 4569 
Q 2703 4569 3111 4223 
Q 3519 3878 3519 3234 
Q 3519 2944 3423 2683 
Q 3328 2422 3115 2223 
Q 2903 2025 2558 1911 
Q 2213 1797 1713 1797 
L 1156 1797 
L 1156 0 
L 625 0 
L 625 4569 
L 1819 4569 
z
M 1769 4116 
L 1156 4116 
L 1156 2253 
L 1653 2253 
Q 2091 2253 2383 2347 
Q 2675 2441 2822 2652 
Q 2969 2863 2969 3213 
Q 2969 3669 2678 3892 
Q 2388 4116 1769 4116 
z
" transform="scale(0.015625)"/>
       <path id="OpenSans-Regular-75" d="M 3375 3425 
L 3375 0 
L 2950 0 
L 2875 481 
L 2847 481 
Q 2741 303 2572 181 
Q 2403 59 2192 -2 
Q 1981 -63 1744 -63 
Q 1338 -63 1063 68 
Q 788 200 648 475 
Q 509 750 509 1181 
L 509 3425 
L 1034 3425 
L 1034 1219 
Q 1034 791 1228 580 
Q 1422 369 1819 369 
Q 2200 369 2426 512 
Q 2653 656 2753 936 
Q 2853 1216 2853 1622 
L 2853 3425 
L 3375 3425 
z
" transform="scale(0.015625)"/>
       <path id="OpenSans-Regular-62" d="M 1066 4863 
L 1066 3647 
Q 1066 3438 1055 3241 
Q 1044 3044 1038 2934 
L 1066 2934 
Q 1206 3166 1472 3325 
Q 1738 3484 2150 3484 
Q 2794 3484 3176 3039 
Q 3559 2594 3559 1716 
Q 3559 1138 3384 741 
Q 3209 344 2890 140 
Q 2572 -63 2138 -63 
Q 1731 -63 1470 89 
Q 1209 241 1069 459 
L 1028 459 
L 922 0 
L 547 0 
L 547 4863 
L 1066 4863 
z
M 2066 3050 
Q 1694 3050 1475 2904 
Q 1256 2759 1161 2467 
Q 1066 2175 1066 1728 
L 1066 1700 
Q 1066 1053 1281 711 
Q 1497 369 2066 369 
Q 2544 369 2783 719 
Q 3022 1069 3022 1719 
Q 3022 2381 2786 2715 
Q 2550 3050 2066 3050 
z
" transform="scale(0.015625)"/>
       <path id="OpenSans-Regular-6c" d="M 1069 0 
L 547 0 
L 547 4863 
L 1069 4863 
L 1069 0 
z
" transform="scale(0.015625)"/>
       <path id="OpenSans-Regular-69" d="M 1066 3425 
L 1066 0 
L 547 0 
L 547 3425 
L 1066 3425 
z
M 813 4706 
Q 941 4706 1033 4623 
Q 1125 4541 1125 4366 
Q 1125 4194 1033 4109 
Q 941 4025 813 4025 
Q 678 4025 589 4109 
Q 500 4194 500 4366 
Q 500 4541 589 4623 
Q 678 4706 813 4706 
z
" transform="scale(0.015625)"/>
       <path id="OpenSans-Regular-63" d="M 1919 -63 
Q 1456 -63 1103 128 
Q 750 319 553 709 
Q 356 1100 356 1694 
Q 356 2316 564 2711 
Q 772 3106 1137 3297 
Q 1503 3488 1969 3488 
Q 2225 3488 2464 3436 
Q 2703 3384 2856 3306 
L 2700 2872 
Q 2544 2934 2339 2984 
Q 2134 3034 1956 3034 
Q 1600 3034 1364 2881 
Q 1128 2728 1011 2431 
Q 894 2134 894 1700 
Q 894 1284 1008 990 
Q 1122 697 1348 542 
Q 1575 388 1916 388 
Q 2188 388 2406 445 
Q 2625 503 2803 581 
L 2803 119 
Q 2631 31 2420 -16 
Q 2209 -63 1919 -63 
z
" transform="scale(0.015625)"/>
       <path id="OpenSans-Regular-61" d="M 1828 3481 
Q 2441 3481 2737 3206 
Q 3034 2931 3034 2328 
L 3034 0 
L 2656 0 
L 2556 506 
L 2531 506 
Q 2388 319 2231 192 
Q 2075 66 1870 1 
Q 1666 -63 1369 -63 
Q 1056 -63 814 46 
Q 572 156 433 378 
Q 294 600 294 941 
Q 294 1453 700 1728 
Q 1106 2003 1938 2028 
L 2528 2053 
L 2528 2263 
Q 2528 2706 2337 2884 
Q 2147 3063 1800 3063 
Q 1531 3063 1287 2984 
Q 1044 2906 825 2800 
L 666 3194 
Q 897 3313 1197 3397 
Q 1497 3481 1828 3481 
z
M 2522 1688 
L 2000 1666 
Q 1359 1641 1096 1456 
Q 834 1272 834 934 
Q 834 641 1012 500 
Q 1191 359 1484 359 
Q 1941 359 2231 612 
Q 2522 866 2522 1372 
L 2522 1688 
z
" transform="scale(0.015625)"/>
       <path id="OpenSans-Regular-74" d="M 1653 363 
Q 1781 363 1915 384 
Q 2050 406 2134 438 
L 2134 34 
Q 2044 -6 1883 -34 
Q 1722 -63 1569 -63 
Q 1297 -63 1075 32 
Q 853 128 720 356 
Q 588 584 588 988 
L 588 3019 
L 100 3019 
L 100 3272 
L 591 3475 
L 797 4219 
L 1109 4219 
L 1109 3425 
L 2113 3425 
L 2113 3019 
L 1109 3019 
L 1109 1003 
Q 1109 681 1257 522 
Q 1406 363 1653 363 
z
" transform="scale(0.015625)"/>
       <path id="OpenSans-Regular-6f" d="M 3500 1719 
Q 3500 1297 3390 965 
Q 3281 634 3075 406 
Q 2869 178 2576 57 
Q 2284 -63 1916 -63 
Q 1572 -63 1286 57 
Q 1000 178 792 406 
Q 584 634 470 965 
Q 356 1297 356 1719 
Q 356 2281 547 2676 
Q 738 3072 1092 3280 
Q 1447 3488 1938 3488 
Q 2406 3488 2757 3278 
Q 3109 3069 3304 2673 
Q 3500 2278 3500 1719 
z
M 894 1719 
Q 894 1306 1003 1003 
Q 1113 700 1341 534 
Q 1569 369 1928 369 
Q 2284 369 2514 534 
Q 2744 700 2853 1003 
Q 2963 1306 2963 1719 
Q 2963 2128 2853 2426 
Q 2744 2725 2516 2887 
Q 2288 3050 1925 3050 
Q 1391 3050 1142 2697 
Q 894 2344 894 1719 
z
" transform="scale(0.015625)"/>
       <path id="OpenSans-Regular-6e" d="M 2169 3488 
Q 2778 3488 3090 3189 
Q 3403 2891 3403 2231 
L 3403 0 
L 2891 0 
L 2891 2197 
Q 2891 2625 2695 2837 
Q 2500 3050 2097 3050 
Q 1528 3050 1297 2728 
Q 1066 2406 1066 1794 
L 1066 0 
L 547 0 
L 547 3425 
L 966 3425 
L 1044 2931 
L 1072 2931 
Q 1181 3113 1350 3236 
Q 1519 3359 1728 3423 
Q 1938 3488 2169 3488 
z
" transform="scale(0.015625)"/>
       <path id="OpenSans-Regular-20" transform="scale(0.015625)"/>
       <path id="OpenSans-Regular-59" d="M 1791 2278 
L 3006 4569 
L 3578 4569 
L 2056 1772 
L 2056 0 
L 1525 0 
L 1525 1747 
L 0 4569 
L 581 4569 
L 1791 2278 
z
" transform="scale(0.015625)"/>
       <path id="OpenSans-Regular-65" d="M 1866 3488 
Q 2303 3488 2615 3294 
Q 2928 3100 3093 2751 
Q 3259 2403 3259 1938 
L 3259 1616 
L 894 1616 
Q 903 1013 1193 697 
Q 1484 381 2013 381 
Q 2338 381 2588 440 
Q 2838 500 3106 616 
L 3106 159 
Q 2847 44 2592 -9 
Q 2338 -63 1991 -63 
Q 1497 -63 1130 139 
Q 763 341 559 731 
Q 356 1122 356 1688 
Q 356 2241 542 2645 
Q 728 3050 1067 3269 
Q 1406 3488 1866 3488 
z
M 1859 3063 
Q 1444 3063 1197 2791 
Q 950 2519 903 2031 
L 2716 2031 
Q 2713 2338 2620 2570 
Q 2528 2803 2340 2933 
Q 2153 3063 1859 3063 
z
" transform="scale(0.015625)"/>
       <path id="OpenSans-Regular-72" d="M 2103 3488 
Q 2206 3488 2318 3477 
Q 2431 3466 2519 3447 
L 2453 2966 
Q 2369 2988 2266 3000 
Q 2163 3013 2072 3013 
Q 1866 3013 1683 2930 
Q 1500 2847 1362 2692 
Q 1225 2538 1147 2320 
Q 1069 2103 1069 1838 
L 1069 0 
L 547 0 
L 547 3425 
L 978 3425 
L 1034 2794 
L 1056 2794 
Q 1163 2984 1313 3142 
Q 1463 3300 1661 3394 
Q 1859 3488 2103 3488 
z
" transform="scale(0.015625)"/>
      </defs>
      <use xlink:href="#OpenSans-Regular-50"/>
      <use xlink:href="#OpenSans-Regular-75" transform="translate(60.15625 0)"/>
      <use xlink:href="#OpenSans-Regular-62" transform="translate(121.484375 0)"/>
      <use xlink:href="#OpenSans-Regular-6c" transform="translate(182.666016 0)"/>
      <use xlink:href="#OpenSans-Regular-69" transform="translate(207.910156 0)"/>
      <use xlink:href="#OpenSans-Regular-63" transform="translate(233.154297 0)"/>
      <use xlink:href="#OpenSans-Regular-61" transform="translate(281.054688 0)"/>
      <use xlink:href="#OpenSans-Regular-74" transform="translate(336.621094 0)"/>
      <use xlink:href="#OpenSans-Regular-69" transform="translate(372.265625 0)"/>
      <use xlink:href="#OpenSans-Regular-6f" transform="translate(397.509766 0)"/>
      <use xlink:href="#OpenSans-Regular-6e" transform="translate(457.666016 0)"/>
      <use xlink:href="#OpenSans-Regular-20" transform="translate(518.994141 0)"/>
      <use xlink:href="#OpenSans-Regular-59" transform="translate(544.970703 0)"/>
      <use xlink:href="#OpenSans-Regular-65" transform="translate(600.878906 0)"/>
      <use xlink:href="#OpenSans-Regular-61" transform="translate(657.03125 0)"/>
      <use xlink:href="#OpenSans-Regular-72" transform="translate(712.597656 0)"/>
     </g>
    </g>
   </g>
   <g id="matplotlib.axis_2">
    <g id="ytick_1">
     <g id="line2d_15">
      <defs>
       <path id="m6de487ecd9" d="M 0 0 
L -6 0 
" style="stroke: #262626; stroke-width: 1.25"/>
      </defs>
      <g>
       <use xlink:href="#m6de487ecd9" x="50.06875" y="355.857273" style="fill: #262626; stroke: #262626; stroke-width: 1.25"/>
      </g>
     </g>
     <g id="text_16">
      <!-- $\mathdefault{10^{0}}$ -->
      <g style="fill: #262626" transform="translate(23.18875 360.036413) scale(0.11 -0.11)">
       <use xlink:href="#OpenSans-Regular-31" transform="translate(0 0.778125)"/>
       <use xlink:href="#OpenSans-Regular-30" transform="translate(57.177734 0.778125)"/>
       <use xlink:href="#OpenSans-Regular-30" transform="translate(115.291992 38.239063) scale(0.7)"/>
      </g>
     </g>
    </g>
    <g id="ytick_2">
     <g id="line2d_16">
      <g>
       <use xlink:href="#m6de487ecd9" x="50.06875" y="215.032964" style="fill: #262626; stroke: #262626; stroke-width: 1.25"/>
      </g>
     </g>
     <g id="text_17">
      <!-- $\mathdefault{10^{1}}$ -->
      <g style="fill: #262626" transform="translate(23.18875 219.212104) scale(0.11 -0.11)">
       <use xlink:href="#OpenSans-Regular-31" transform="translate(0 0.565625)"/>
       <use xlink:href="#OpenSans-Regular-30" transform="translate(57.177734 0.565625)"/>
       <use xlink:href="#OpenSans-Regular-31" transform="translate(115.291992 38.026563) scale(0.7)"/>
      </g>
     </g>
    </g>
    <g id="ytick_3">
     <g id="line2d_17">
      <g>
       <use xlink:href="#m6de487ecd9" x="50.06875" y="74.208655" style="fill: #262626; stroke: #262626; stroke-width: 1.25"/>
      </g>
     </g>
     <g id="text_18">
      <!-- $\mathdefault{10^{2}}$ -->
      <g style="fill: #262626" transform="translate(23.18875 78.387795) scale(0.11 -0.11)">
       <use xlink:href="#OpenSans-Regular-31" transform="translate(0 0.854688)"/>
       <use xlink:href="#OpenSans-Regular-30" transform="translate(57.177734 0.854688)"/>
       <use xlink:href="#OpenSans-Regular-32" transform="translate(115.291992 38.315625) scale(0.7)"/>
      </g>
     </g>
    </g>
    <g id="ytick_4">
     <g id="line2d_18">
      <defs>
       <path id="me665fd2b83" d="M 0 0 
L -4 0 
" style="stroke: #262626"/>
      </defs>
      <g>
       <use xlink:href="#me665fd2b83" x="50.06875" y="369.504558" style="fill: #262626; stroke: #262626"/>
      </g>
     </g>
    </g>
    <g id="ytick_5">
     <g id="line2d_19">
      <g>
       <use xlink:href="#me665fd2b83" x="50.06875" y="362.30104" style="fill: #262626; stroke: #262626"/>
      </g>
     </g>
    </g>
    <g id="ytick_6">
     <g id="line2d_20">
      <g>
       <use xlink:href="#me665fd2b83" x="50.06875" y="313.464932" style="fill: #262626; stroke: #262626"/>
      </g>
     </g>
    </g>
    <g id="ytick_7">
     <g id="line2d_21">
      <g>
       <use xlink:href="#me665fd2b83" x="50.06875" y="288.667002" style="fill: #262626; stroke: #262626"/>
      </g>
     </g>
    </g>
    <g id="ytick_8">
     <g id="line2d_22">
      <g>
       <use xlink:href="#me665fd2b83" x="50.06875" y="271.07259" style="fill: #262626; stroke: #262626"/>
      </g>
     </g>
    </g>
    <g id="ytick_9">
     <g id="line2d_23">
      <g>
       <use xlink:href="#me665fd2b83" x="50.06875" y="257.425305" style="fill: #262626; stroke: #262626"/>
      </g>
     </g>
    </g>
    <g id="ytick_10">
     <g id="line2d_24">
      <g>
       <use xlink:href="#me665fd2b83" x="50.06875" y="246.274661" style="fill: #262626; stroke: #262626"/>
      </g>
     </g>
    </g>
    <g id="ytick_11">
     <g id="line2d_25">
      <g>
       <use xlink:href="#me665fd2b83" x="50.06875" y="236.846925" style="fill: #262626; stroke: #262626"/>
      </g>
     </g>
    </g>
    <g id="ytick_12">
     <g id="line2d_26">
      <g>
       <use xlink:href="#me665fd2b83" x="50.06875" y="228.680249" style="fill: #262626; stroke: #262626"/>
      </g>
     </g>
    </g>
    <g id="ytick_13">
     <g id="line2d_27">
      <g>
       <use xlink:href="#me665fd2b83" x="50.06875" y="221.476731" style="fill: #262626; stroke: #262626"/>
      </g>
     </g>
    </g>
    <g id="ytick_14">
     <g id="line2d_28">
      <g>
       <use xlink:href="#me665fd2b83" x="50.06875" y="172.640623" style="fill: #262626; stroke: #262626"/>
      </g>
     </g>
    </g>
    <g id="ytick_15">
     <g id="line2d_29">
      <g>
       <use xlink:href="#me665fd2b83" x="50.06875" y="147.842693" style="fill: #262626; stroke: #262626"/>
      </g>
     </g>
    </g>
    <g id="ytick_16">
     <g id="line2d_30">
      <g>
       <use xlink:href="#me665fd2b83" x="50.06875" y="130.248282" style="fill: #262626; stroke: #262626"/>
      </g>
     </g>
    </g>
    <g id="ytick_17">
     <g id="line2d_31">
      <g>
       <use xlink:href="#me665fd2b83" x="50.06875" y="116.600996" style="fill: #262626; stroke: #262626"/>
      </g>
     </g>
    </g>
    <g id="ytick_18">
     <g id="line2d_32">
      <g>
       <use xlink:href="#me665fd2b83" x="50.06875" y="105.450352" style="fill: #262626; stroke: #262626"/>
      </g>
     </g>
    </g>
    <g id="ytick_19">
     <g id="line2d_33">
      <g>
       <use xlink:href="#me665fd2b83" x="50.06875" y="96.022616" style="fill: #262626; stroke: #262626"/>
      </g>
     </g>
    </g>
    <g id="ytick_20">
     <g id="line2d_34">
      <g>
       <use xlink:href="#me665fd2b83" x="50.06875" y="87.85594" style="fill: #262626; stroke: #262626"/>
      </g>
     </g>
    </g>
    <g id="ytick_21">
     <g id="line2d_35">
      <g>
       <use xlink:href="#me665fd2b83" x="50.06875" y="80.652422" style="fill: #262626; stroke: #262626"/>
      </g>
     </g>
    </g>
    <g id="ytick_22">
     <g id="line2d_36">
      <g>
       <use xlink:href="#me665fd2b83" x="50.06875" y="31.816314" style="fill: #262626; stroke: #262626"/>
      </g>
     </g>
    </g>
    <g id="text_19">
     <!-- Number of Publications -->
     <g style="fill: #262626" transform="translate(16.318125 255.821562) rotate(-90) scale(0.12 -0.12)">
      <defs>
       <path id="OpenSans-Regular-4e" d="M 4197 0 
L 3584 0 
L 1094 3838 
L 1069 3838 
Q 1078 3684 1090 3489 
Q 1103 3294 1111 3073 
Q 1119 2853 1119 2625 
L 1119 0 
L 625 0 
L 625 4569 
L 1234 4569 
L 3716 744 
L 3738 744 
Q 3731 853 3722 1054 
Q 3713 1256 3705 1489 
Q 3697 1722 3697 1922 
L 3697 4569 
L 4197 4569 
L 4197 0 
z
" transform="scale(0.015625)"/>
       <path id="OpenSans-Regular-6d" d="M 4266 3488 
Q 4831 3488 5118 3192 
Q 5406 2897 5406 2244 
L 5406 0 
L 4894 0 
L 4894 2219 
Q 4894 2634 4714 2842 
Q 4534 3050 4181 3050 
Q 3684 3050 3459 2762 
Q 3234 2475 3234 1916 
L 3234 0 
L 2719 0 
L 2719 2219 
Q 2719 2497 2639 2681 
Q 2559 2866 2401 2958 
Q 2244 3050 2003 3050 
Q 1663 3050 1456 2909 
Q 1250 2769 1158 2492 
Q 1066 2216 1066 1813 
L 1066 0 
L 547 0 
L 547 3425 
L 966 3425 
L 1044 2941 
L 1072 2941 
Q 1175 3119 1331 3241 
Q 1488 3363 1681 3425 
Q 1875 3488 2094 3488 
Q 2484 3488 2748 3342 
Q 3013 3197 3131 2900 
L 3159 2900 
Q 3328 3197 3622 3342 
Q 3916 3488 4266 3488 
z
" transform="scale(0.015625)"/>
       <path id="OpenSans-Regular-66" d="M 2072 3019 
L 1219 3019 
L 1219 0 
L 700 0 
L 700 3019 
L 94 3019 
L 94 3269 
L 700 3441 
L 700 3669 
Q 700 4100 828 4370 
Q 956 4641 1200 4769 
Q 1444 4897 1794 4897 
Q 1991 4897 2155 4862 
Q 2319 4828 2444 4784 
L 2309 4375 
Q 2203 4409 2070 4439 
Q 1938 4469 1800 4469 
Q 1503 4469 1361 4276 
Q 1219 4084 1219 3675 
L 1219 3425 
L 2072 3425 
L 2072 3019 
z
" transform="scale(0.015625)"/>
       <path id="OpenSans-Regular-73" d="M 2763 938 
Q 2763 609 2598 386 
Q 2434 163 2129 50 
Q 1825 -63 1403 -63 
Q 1044 -63 781 -6 
Q 519 50 322 153 
L 322 631 
Q 531 528 822 443 
Q 1113 359 1416 359 
Q 1859 359 2059 503 
Q 2259 647 2259 894 
Q 2259 1034 2179 1142 
Q 2100 1250 1912 1351 
Q 1725 1453 1394 1575 
Q 1066 1700 827 1823 
Q 588 1947 458 2125 
Q 328 2303 328 2588 
Q 328 3022 679 3255 
Q 1031 3488 1603 3488 
Q 1913 3488 2183 3427 
Q 2453 3366 2688 3263 
L 2513 2847 
Q 2300 2938 2059 3000 
Q 1819 3063 1569 3063 
Q 1209 3063 1017 2944 
Q 825 2825 825 2619 
Q 825 2459 914 2356 
Q 1003 2253 1200 2162 
Q 1397 2072 1719 1950 
Q 2041 1831 2275 1704 
Q 2509 1578 2636 1398 
Q 2763 1219 2763 938 
z
" transform="scale(0.015625)"/>
      </defs>
      <use xlink:href="#OpenSans-Regular-4e"/>
      <use xlink:href="#OpenSans-Regular-75" transform="translate(75.292969 0)"/>
      <use xlink:href="#OpenSans-Regular-6d" transform="translate(136.621094 0)"/>
      <use xlink:href="#OpenSans-Regular-62" transform="translate(229.199219 0)"/>
      <use xlink:href="#OpenSans-Regular-65" transform="translate(290.380859 0)"/>
      <use xlink:href="#OpenSans-Regular-72" transform="translate(346.533203 0)"/>
      <use xlink:href="#OpenSans-Regular-20" transform="translate(387.402344 0)"/>
      <use xlink:href="#OpenSans-Regular-6f" transform="translate(413.378906 0)"/>
      <use xlink:href="#OpenSans-Regular-66" transform="translate(473.535156 0)"/>
      <use xlink:href="#OpenSans-Regular-20" transform="translate(507.177734 0)"/>
      <use xlink:href="#OpenSans-Regular-50" transform="translate(533.154297 0)"/>
      <use xlink:href="#OpenSans-Regular-75" transform="translate(593.310547 0)"/>
      <use xlink:href="#OpenSans-Regular-62" transform="translate(654.638672 0)"/>
      <use xlink:href="#OpenSans-Regular-6c" transform="translate(715.820312 0)"/>
      <use xlink:href="#OpenSans-Regular-69" transform="translate(741.064453 0)"/>
      <use xlink:href="#OpenSans-Regular-63" transform="translate(766.308594 0)"/>
      <use xlink:href="#OpenSans-Regular-61" transform="translate(814.208984 0)"/>
      <use xlink:href="#OpenSans-Regular-74" transform="translate(869.775391 0)"/>
      <use xlink:href="#OpenSans-Regular-69" transform="translate(905.419922 0)"/>
      <use xlink:href="#OpenSans-Regular-6f" transform="translate(930.664062 0)"/>
      <use xlink:href="#OpenSans-Regular-6e" transform="translate(990.820312 0)"/>
      <use xlink:href="#OpenSans-Regular-73" transform="translate(1052.148438 0)"/>
     </g>
    </g>
   </g>
   <g id="patch_3">
    <path d="M 86.008374 141180.166255 
L 106.842938 141180.166255 
L 106.842938 141180.166255 
L 86.008374 141180.166255 
z
" clip-path="url(#pd6e41d0caf)" style="fill: #3274a1; stroke: #000000; stroke-linejoin: miter"/>
   </g>
   <g id="patch_4">
    <path d="M 138.094785 141180.166255 
L 158.929349 141180.166255 
L 158.929349 355.857273 
L 138.094785 355.857273 
z
" clip-path="url(#pd6e41d0caf)" style="fill: #3274a1; stroke: #000000; stroke-linejoin: miter"/>
   </g>
   <g id="patch_5">
    <path d="M 190.181196 141180.166255 
L 211.01576 141180.166255 
L 211.01576 355.857273 
L 190.181196 355.857273 
z
" clip-path="url(#pd6e41d0caf)" style="fill: #3274a1; stroke: #000000; stroke-linejoin: miter"/>
   </g>
   <g id="patch_6">
    <path d="M 242.267607 141180.166255 
L 263.102171 141180.166255 
L 263.102171 313.464932 
L 242.267607 313.464932 
z
" clip-path="url(#pd6e41d0caf)" style="fill: #3274a1; stroke: #000000; stroke-linejoin: miter"/>
   </g>
   <g id="patch_7">
    <path d="M 294.354018 141180.166255 
L 315.188582 141180.166255 
L 315.188582 141180.166255 
L 294.354018 141180.166255 
z
" clip-path="url(#pd6e41d0caf)" style="fill: #3274a1; stroke: #000000; stroke-linejoin: miter"/>
   </g>
   <g id="patch_8">
    <path d="M 346.440429 141180.166255 
L 367.274993 141180.166255 
L 367.274993 288.667002 
L 346.440429 288.667002 
z
" clip-path="url(#pd6e41d0caf)" style="fill: #3274a1; stroke: #000000; stroke-linejoin: miter"/>
   </g>
   <g id="patch_9">
    <path d="M 398.52684 141180.166255 
L 419.361404 141180.166255 
L 419.361404 221.476731 
L 398.52684 221.476731 
z
" clip-path="url(#pd6e41d0caf)" style="fill: #3274a1; stroke: #000000; stroke-linejoin: miter"/>
   </g>
   <g id="patch_10">
    <path d="M 450.613251 141180.166255 
L 471.447815 141180.166255 
L 471.447815 228.680249 
L 450.613251 228.680249 
z
" clip-path="url(#pd6e41d0caf)" style="fill: #3274a1; stroke: #000000; stroke-linejoin: miter"/>
   </g>
   <g id="patch_11">
    <path d="M 502.699662 141180.166255 
L 523.534226 141180.166255 
L 523.534226 172.640623 
L 502.699662 172.640623 
z
" clip-path="url(#pd6e41d0caf)" style="fill: #3274a1; stroke: #000000; stroke-linejoin: miter"/>
   </g>
   <g id="patch_12">
    <path d="M 554.786073 141180.166255 
L 575.620637 141180.166255 
L 575.620637 172.640623 
L 554.786073 172.640623 
z
" clip-path="url(#pd6e41d0caf)" style="fill: #3274a1; stroke: #000000; stroke-linejoin: miter"/>
   </g>
   <g id="patch_13">
    <path d="M 606.872484 141180.166255 
L 627.707048 141180.166255 
L 627.707048 143.895567 
L 606.872484 143.895567 
z
" clip-path="url(#pd6e41d0caf)" style="fill: #3274a1; stroke: #000000; stroke-linejoin: miter"/>
   </g>
   <g id="patch_14">
    <path d="M 658.958895 141180.166255 
L 679.793459 141180.166255 
L 679.793459 164.092891 
L 658.958895 164.092891 
z
" clip-path="url(#pd6e41d0caf)" style="fill: #3274a1; stroke: #000000; stroke-linejoin: miter"/>
   </g>
   <g id="patch_15">
    <path d="M 711.045306 141180.166255 
L 731.87987 141180.166255 
L 731.87987 182.580154 
L 711.045306 182.580154 
z
" clip-path="url(#pd6e41d0caf)" style="fill: #3274a1; stroke: #000000; stroke-linejoin: miter"/>
   </g>
   <g id="patch_16">
    <path d="M 763.131717 141180.166255 
L 783.966282 141180.166255 
L 783.966282 141180.166255 
L 763.131717 141180.166255 
z
" clip-path="url(#pd6e41d0caf)" style="fill: #3274a1; stroke: #000000; stroke-linejoin: miter"/>
   </g>
   <g id="patch_17">
    <path d="M 106.842938 141180.166255 
L 127.677502 141180.166255 
L 127.677502 313.464932 
L 106.842938 313.464932 
z
" clip-path="url(#pd6e41d0caf)" style="fill: #e1812c; stroke: #000000; stroke-linejoin: miter"/>
   </g>
   <g id="patch_18">
    <path d="M 158.929349 141180.166255 
L 179.763913 141180.166255 
L 179.763913 355.857273 
L 158.929349 355.857273 
z
" clip-path="url(#pd6e41d0caf)" style="fill: #e1812c; stroke: #000000; stroke-linejoin: miter"/>
   </g>
   <g id="patch_19">
    <path d="M 211.01576 141180.166255 
L 231.850325 141180.166255 
L 231.850325 141180.166255 
L 211.01576 141180.166255 
z
" clip-path="url(#pd6e41d0caf)" style="fill: #e1812c; stroke: #000000; stroke-linejoin: miter"/>
   </g>
   <g id="patch_20">
    <path d="M 263.102171 141180.166255 
L 283.936736 141180.166255 
L 283.936736 288.667002 
L 263.102171 288.667002 
z
" clip-path="url(#pd6e41d0caf)" style="fill: #e1812c; stroke: #000000; stroke-linejoin: miter"/>
   </g>
   <g id="patch_21">
    <path d="M 315.188582 141180.166255 
L 336.023147 141180.166255 
L 336.023147 355.857273 
L 315.188582 355.857273 
z
" clip-path="url(#pd6e41d0caf)" style="fill: #e1812c; stroke: #000000; stroke-linejoin: miter"/>
   </g>
   <g id="patch_22">
    <path d="M 367.274993 141180.166255 
L 388.109558 141180.166255 
L 388.109558 257.425305 
L 367.274993 257.425305 
z
" clip-path="url(#pd6e41d0caf)" style="fill: #e1812c; stroke: #000000; stroke-linejoin: miter"/>
   </g>
   <g id="patch_23">
    <path d="M 419.361404 141180.166255 
L 440.195969 141180.166255 
L 440.195969 190.235034 
L 419.361404 190.235034 
z
" clip-path="url(#pd6e41d0caf)" style="fill: #e1812c; stroke: #000000; stroke-linejoin: miter"/>
   </g>
   <g id="patch_24">
    <path d="M 471.447815 141180.166255 
L 492.28238 141180.166255 
L 492.28238 198.98697 
L 471.447815 198.98697 
z
" clip-path="url(#pd6e41d0caf)" style="fill: #e1812c; stroke: #000000; stroke-linejoin: miter"/>
   </g>
   <g id="patch_25">
    <path d="M 523.534226 141180.166255 
L 544.368791 141180.166255 
L 544.368791 164.092891 
L 523.534226 164.092891 
z
" clip-path="url(#pd6e41d0caf)" style="fill: #e1812c; stroke: #000000; stroke-linejoin: miter"/>
   </g>
   <g id="patch_26">
    <path d="M 575.620637 141180.166255 
L 596.455202 141180.166255 
L 596.455202 149.916085 
L 575.620637 149.916085 
z
" clip-path="url(#pd6e41d0caf)" style="fill: #e1812c; stroke: #000000; stroke-linejoin: miter"/>
   </g>
   <g id="patch_27">
    <path d="M 627.707048 141180.166255 
L 648.541613 141180.166255 
L 648.541613 128.738101 
L 627.707048 128.738101 
z
" clip-path="url(#pd6e41d0caf)" style="fill: #e1812c; stroke: #000000; stroke-linejoin: miter"/>
   </g>
   <g id="patch_28">
    <path d="M 679.793459 141180.166255 
L 700.628024 141180.166255 
L 700.628024 120.385247 
L 679.793459 120.385247 
z
" clip-path="url(#pd6e41d0caf)" style="fill: #e1812c; stroke: #000000; stroke-linejoin: miter"/>
   </g>
   <g id="patch_29">
    <path d="M 731.87987 141180.166255 
L 752.714435 141180.166255 
L 752.714435 120.385247 
L 731.87987 120.385247 
z
" clip-path="url(#pd6e41d0caf)" style="fill: #e1812c; stroke: #000000; stroke-linejoin: miter"/>
   </g>
   <g id="patch_30">
    <path d="M 783.966282 141180.166255 
L 804.800846 141180.166255 
L 804.800846 355.857273 
L 783.966282 355.857273 
z
" clip-path="url(#pd6e41d0caf)" style="fill: #e1812c; stroke: #000000; stroke-linejoin: miter"/>
   </g>
   <g id="patch_31">
    <path d="M 106.842938 141180.166255 
L 106.842938 141180.166255 
L 106.842938 141180.166255 
L 106.842938 141180.166255 
z
" clip-path="url(#pd6e41d0caf)" style="fill: #3274a1; stroke: #000000; stroke-linejoin: miter"/>
   </g>
   <g id="patch_32">
    <path d="M 106.842938 141180.166255 
L 106.842938 141180.166255 
L 106.842938 141180.166255 
L 106.842938 141180.166255 
z
" clip-path="url(#pd6e41d0caf)" style="fill: #e1812c; stroke: #000000; stroke-linejoin: miter"/>
   </g>
   <g id="FillBetweenPolyCollection_1"/>
   <g id="FillBetweenPolyCollection_2"/>
   <g id="line2d_37">
    <path clip-path="url(#pd6e41d0caf)" style="fill: none; stroke: #424242; stroke-width: 2.25; stroke-linecap: round"/>
   </g>
   <g id="line2d_38">
    <path clip-path="url(#pd6e41d0caf)" style="fill: none; stroke: #424242; stroke-width: 2.25; stroke-linecap: round"/>
   </g>
   <g id="line2d_39">
    <path clip-path="url(#pd6e41d0caf)" style="fill: none; stroke: #424242; stroke-width: 2.25; stroke-linecap: round"/>
   </g>
   <g id="line2d_40">
    <path clip-path="url(#pd6e41d0caf)" style="fill: none; stroke: #424242; stroke-width: 2.25; stroke-linecap: round"/>
   </g>
   <g id="line2d_41">
    <path clip-path="url(#pd6e41d0caf)" style="fill: none; stroke: #424242; stroke-width: 2.25; stroke-linecap: round"/>
   </g>
   <g id="line2d_42">
    <path clip-path="url(#pd6e41d0caf)" style="fill: none; stroke: #424242; stroke-width: 2.25; stroke-linecap: round"/>
   </g>
   <g id="line2d_43">
    <path clip-path="url(#pd6e41d0caf)" style="fill: none; stroke: #424242; stroke-width: 2.25; stroke-linecap: round"/>
   </g>
   <g id="line2d_44">
    <path clip-path="url(#pd6e41d0caf)" style="fill: none; stroke: #424242; stroke-width: 2.25; stroke-linecap: round"/>
   </g>
   <g id="line2d_45">
    <path clip-path="url(#pd6e41d0caf)" style="fill: none; stroke: #424242; stroke-width: 2.25; stroke-linecap: round"/>
   </g>
   <g id="line2d_46">
    <path clip-path="url(#pd6e41d0caf)" style="fill: none; stroke: #424242; stroke-width: 2.25; stroke-linecap: round"/>
   </g>
   <g id="line2d_47">
    <path clip-path="url(#pd6e41d0caf)" style="fill: none; stroke: #424242; stroke-width: 2.25; stroke-linecap: round"/>
   </g>
   <g id="line2d_48">
    <path clip-path="url(#pd6e41d0caf)" style="fill: none; stroke: #424242; stroke-width: 2.25; stroke-linecap: round"/>
   </g>
   <g id="line2d_49">
    <path clip-path="url(#pd6e41d0caf)" style="fill: none; stroke: #424242; stroke-width: 2.25; stroke-linecap: round"/>
   </g>
   <g id="line2d_50">
    <path clip-path="url(#pd6e41d0caf)" style="fill: none; stroke: #424242; stroke-width: 2.25; stroke-linecap: round"/>
   </g>
   <g id="line2d_51">
    <path clip-path="url(#pd6e41d0caf)" style="fill: none; stroke: #424242; stroke-width: 2.25; stroke-linecap: round"/>
   </g>
   <g id="line2d_52">
    <path clip-path="url(#pd6e41d0caf)" style="fill: none; stroke: #424242; stroke-width: 2.25; stroke-linecap: round"/>
   </g>
   <g id="line2d_53">
    <path clip-path="url(#pd6e41d0caf)" style="fill: none; stroke: #424242; stroke-width: 2.25; stroke-linecap: round"/>
   </g>
   <g id="line2d_54">
    <path clip-path="url(#pd6e41d0caf)" style="fill: none; stroke: #424242; stroke-width: 2.25; stroke-linecap: round"/>
   </g>
   <g id="line2d_55">
    <path clip-path="url(#pd6e41d0caf)" style="fill: none; stroke: #424242; stroke-width: 2.25; stroke-linecap: round"/>
   </g>
   <g id="line2d_56">
    <path clip-path="url(#pd6e41d0caf)" style="fill: none; stroke: #424242; stroke-width: 2.25; stroke-linecap: round"/>
   </g>
   <g id="line2d_57">
    <path clip-path="url(#pd6e41d0caf)" style="fill: none; stroke: #424242; stroke-width: 2.25; stroke-linecap: round"/>
   </g>
   <g id="line2d_58">
    <path clip-path="url(#pd6e41d0caf)" style="fill: none; stroke: #424242; stroke-width: 2.25; stroke-linecap: round"/>
   </g>
   <g id="line2d_59">
    <path clip-path="url(#pd6e41d0caf)" style="fill: none; stroke: #424242; stroke-width: 2.25; stroke-linecap: round"/>
   </g>
   <g id="line2d_60">
    <path clip-path="url(#pd6e41d0caf)" style="fill: none; stroke: #424242; stroke-width: 2.25; stroke-linecap: round"/>
   </g>
   <g id="line2d_61">
    <path clip-path="url(#pd6e41d0caf)" style="fill: none; stroke: #424242; stroke-width: 2.25; stroke-linecap: round"/>
   </g>
   <g id="line2d_62">
    <path clip-path="url(#pd6e41d0caf)" style="fill: none; stroke: #424242; stroke-width: 2.25; stroke-linecap: round"/>
   </g>
   <g id="line2d_63">
    <path clip-path="url(#pd6e41d0caf)" style="fill: none; stroke: #424242; stroke-width: 2.25; stroke-linecap: round"/>
   </g>
   <g id="line2d_64">
    <path clip-path="url(#pd6e41d0caf)" style="fill: none; stroke: #424242; stroke-width: 2.25; stroke-linecap: round"/>
   </g>
   <g id="line2d_65">
    <path d="M 158.906683 417.138437 
L 158.929349 355.857273 
L 211.01576 313.464932 
L 263.102171 271.07259 
L 315.188582 271.07259 
L 367.274993 236.846925 
L 419.361404 186.287908 
L 471.447815 161.489978 
L 523.534226 124.419185 
L 575.620637 101.503226 
L 627.707048 76.705296 
L 679.793459 63.569806 
L 731.87987 55.40313 
L 783.966282 55.40313 
" clip-path="url(#pd6e41d0caf)" style="fill: none; stroke: #1f77b4; stroke-width: 1.5; stroke-linecap: round"/>
   </g>
   <g id="line2d_66">
    <path d="M 106.842938 313.464932 
L 158.929349 288.667002 
L 211.01576 288.667002 
L 263.102171 246.274661 
L 315.188582 236.846925 
L 367.274993 203.882319 
L 419.361404 154.28646 
L 471.447815 130.248282 
L 523.534226 102.466383 
L 575.620637 79.308209 
L 627.707048 56.767333 
L 679.793459 38.260081 
L 731.87987 24.071559 
L 783.966282 23.802727 
" clip-path="url(#pd6e41d0caf)" style="fill: none; stroke: #ff7f0e; stroke-width: 1.5; stroke-linecap: round"/>
   </g>
   <g id="line2d_67"/>
   <g id="line2d_68"/>
   <g id="patch_33">
    <path d="M 50.06875 372.46 
L 50.06875 7.2 
" style="fill: none; stroke: #262626; stroke-width: 1.25; stroke-linejoin: miter; stroke-linecap: square"/>
   </g>
   <g id="patch_34">
    <path d="M 50.06875 372.46 
L 840.74047 372.46 
" style="fill: none; stroke: #262626; stroke-width: 1.25; stroke-linejoin: miter; stroke-linecap: square"/>
   </g>
   <g id="text_20">
    <!-- 1 -->
    <g style="fill: #262626" transform="translate(145.653473 348.465085) scale(0.1 -0.1)">
     <use xlink:href="#OpenSans-Regular-31"/>
    </g>
   </g>
   <g id="text_21">
    <!-- 1 -->
    <g style="fill: #262626" transform="translate(197.739884 348.465085) scale(0.1 -0.1)">
     <use xlink:href="#OpenSans-Regular-31"/>
    </g>
   </g>
   <g id="text_22">
    <!-- 2 -->
    <g style="fill: #262626" transform="translate(249.826295 306.072744) scale(0.1 -0.1)">
     <use xlink:href="#OpenSans-Regular-32"/>
    </g>
   </g>
   <g id="text_23">
    <!-- 3 -->
    <g style="fill: #262626" transform="translate(353.999117 281.274814) scale(0.1 -0.1)">
     <use xlink:href="#OpenSans-Regular-33"/>
    </g>
   </g>
   <g id="text_24">
    <!-- 9 -->
    <g style="fill: #262626" transform="translate(406.085528 214.084543) scale(0.1 -0.1)">
     <use xlink:href="#OpenSans-Regular-39"/>
    </g>
   </g>
   <g id="text_25">
    <!-- 8 -->
    <g style="fill: #262626" transform="translate(458.171939 221.288062) scale(0.1 -0.1)">
     <use xlink:href="#OpenSans-Regular-38"/>
    </g>
   </g>
   <g id="text_26">
    <!-- 20 -->
    <g style="fill: #262626" transform="translate(507.399757 165.248435) scale(0.1 -0.1)">
     <use xlink:href="#OpenSans-Regular-32"/>
     <use xlink:href="#OpenSans-Regular-30" transform="translate(57.177734 0)"/>
    </g>
   </g>
   <g id="text_27">
    <!-- 20 -->
    <g style="fill: #262626" transform="translate(559.486168 165.248435) scale(0.1 -0.1)">
     <use xlink:href="#OpenSans-Regular-32"/>
     <use xlink:href="#OpenSans-Regular-30" transform="translate(57.177734 0)"/>
    </g>
   </g>
   <g id="text_28">
    <!-- 32 -->
    <g style="fill: #262626" transform="translate(611.572579 136.50338) scale(0.1 -0.1)">
     <use xlink:href="#OpenSans-Regular-33"/>
     <use xlink:href="#OpenSans-Regular-32" transform="translate(57.177734 0)"/>
    </g>
   </g>
   <g id="text_29">
    <!-- 23 -->
    <g style="fill: #262626" transform="translate(663.65899 156.700704) scale(0.1 -0.1)">
     <use xlink:href="#OpenSans-Regular-32"/>
     <use xlink:href="#OpenSans-Regular-33" transform="translate(57.177734 0)"/>
    </g>
   </g>
   <g id="text_30">
    <!-- 17 -->
    <g style="fill: #262626" transform="translate(715.745401 175.187966) scale(0.1 -0.1)">
     <use xlink:href="#OpenSans-Regular-31"/>
     <use xlink:href="#OpenSans-Regular-37" transform="translate(57.177734 0)"/>
    </g>
   </g>
   <g id="text_31">
    <!-- 2 -->
    <g style="fill: #262626" transform="translate(114.401626 306.072744) scale(0.1 -0.1)">
     <use xlink:href="#OpenSans-Regular-32"/>
    </g>
   </g>
   <g id="text_32">
    <!-- 1 -->
    <g style="fill: #262626" transform="translate(166.488038 348.465085) scale(0.1 -0.1)">
     <use xlink:href="#OpenSans-Regular-31"/>
    </g>
   </g>
   <g id="text_33">
    <!-- 3 -->
    <g style="fill: #262626" transform="translate(270.66086 281.274814) scale(0.1 -0.1)">
     <use xlink:href="#OpenSans-Regular-33"/>
    </g>
   </g>
   <g id="text_34">
    <!-- 1 -->
    <g style="fill: #262626" transform="translate(322.747271 348.465085) scale(0.1 -0.1)">
     <use xlink:href="#OpenSans-Regular-31"/>
    </g>
   </g>
   <g id="text_35">
    <!-- 5 -->
    <g style="fill: #262626" transform="translate(374.833682 250.033117) scale(0.1 -0.1)">
     <use xlink:href="#OpenSans-Regular-35"/>
    </g>
   </g>
   <g id="text_36">
    <!-- 15 -->
    <g style="fill: #262626" transform="translate(424.061499 182.842846) scale(0.1 -0.1)">
     <use xlink:href="#OpenSans-Regular-31"/>
     <use xlink:href="#OpenSans-Regular-35" transform="translate(57.177734 0)"/>
    </g>
   </g>
   <g id="text_37">
    <!-- 13 -->
    <g style="fill: #262626" transform="translate(476.14791 191.594782) scale(0.1 -0.1)">
     <use xlink:href="#OpenSans-Regular-31"/>
     <use xlink:href="#OpenSans-Regular-33" transform="translate(57.177734 0)"/>
    </g>
   </g>
   <g id="text_38">
    <!-- 23 -->
    <g style="fill: #262626" transform="translate(528.234321 156.700704) scale(0.1 -0.1)">
     <use xlink:href="#OpenSans-Regular-32"/>
     <use xlink:href="#OpenSans-Regular-33" transform="translate(57.177734 0)"/>
    </g>
   </g>
   <g id="text_39">
    <!-- 29 -->
    <g style="fill: #262626" transform="translate(580.320732 142.523898) scale(0.1 -0.1)">
     <use xlink:href="#OpenSans-Regular-32"/>
     <use xlink:href="#OpenSans-Regular-39" transform="translate(57.177734 0)"/>
    </g>
   </g>
   <g id="text_40">
    <!-- 41 -->
    <g style="fill: #262626" transform="translate(632.407143 121.345913) scale(0.1 -0.1)">
     <use xlink:href="#OpenSans-Regular-34"/>
     <use xlink:href="#OpenSans-Regular-31" transform="translate(57.177734 0)"/>
    </g>
   </g>
   <g id="text_41">
    <!-- 47 -->
    <g style="fill: #262626" transform="translate(684.493554 112.99306) scale(0.1 -0.1)">
     <use xlink:href="#OpenSans-Regular-34"/>
     <use xlink:href="#OpenSans-Regular-37" transform="translate(57.177734 0)"/>
    </g>
   </g>
   <g id="text_42">
    <!-- 47 -->
    <g style="fill: #262626" transform="translate(736.579965 112.99306) scale(0.1 -0.1)">
     <use xlink:href="#OpenSans-Regular-34"/>
     <use xlink:href="#OpenSans-Regular-37" transform="translate(57.177734 0)"/>
    </g>
   </g>
   <g id="text_43">
    <!-- 1 -->
    <g style="fill: #262626" transform="translate(791.52497 348.465085) scale(0.1 -0.1)">
     <use xlink:href="#OpenSans-Regular-31"/>
    </g>
   </g>
   <g id="text_44">
    <!-- 136 -->
    <g style="fill: #262626" transform="translate(775.3905 48.010943) scale(0.1 -0.1)">
     <use xlink:href="#OpenSans-Regular-31"/>
     <use xlink:href="#OpenSans-Regular-33" transform="translate(57.177734 0)"/>
     <use xlink:href="#OpenSans-Regular-36" transform="translate(114.355469 0)"/>
    </g>
   </g>
   <g id="text_45">
    <!-- 228 -->
    <g style="fill: #262626" transform="translate(775.3905 16.41054) scale(0.1 -0.1)">
     <use xlink:href="#OpenSans-Regular-32"/>
     <use xlink:href="#OpenSans-Regular-32" transform="translate(57.177734 0)"/>
     <use xlink:href="#OpenSans-Regular-38" transform="translate(114.355469 0)"/>
    </g>
   </g>
   <g id="legend_1">
    <g id="patch_35">
     <path d="M 89.946836 25.458281 
L 111.946836 25.458281 
L 111.946836 17.758281 
L 89.946836 17.758281 
z
" style="fill: #3274a1; stroke: #000000; stroke-linejoin: miter"/>
    </g>
    <g id="text_46">
     <!-- OpenAlex -->
     <g style="fill: #262626" transform="translate(120.746836 25.458281) scale(0.11 -0.11)">
      <defs>
       <path id="OpenSans-Regular-4f" d="M 4588 2291 
Q 4588 1763 4453 1330 
Q 4319 897 4055 586 
Q 3791 275 3400 106 
Q 3009 -63 2494 -63 
Q 1963 -63 1567 106 
Q 1172 275 911 587 
Q 650 900 520 1334 
Q 391 1769 391 2297 
Q 391 2997 622 3525 
Q 853 4053 1323 4347 
Q 1794 4641 2503 4641 
Q 3181 4641 3645 4350 
Q 4109 4059 4348 3532 
Q 4588 3006 4588 2291 
z
M 950 2291 
Q 950 1709 1115 1284 
Q 1281 859 1623 628 
Q 1966 397 2494 397 
Q 3025 397 3364 628 
Q 3703 859 3865 1284 
Q 4028 1709 4028 2291 
Q 4028 3175 3658 3673 
Q 3288 4172 2503 4172 
Q 1972 4172 1628 3944 
Q 1284 3716 1117 3295 
Q 950 2875 950 2291 
z
" transform="scale(0.015625)"/>
       <path id="OpenSans-Regular-70" d="M 2156 3488 
Q 2797 3488 3178 3047 
Q 3559 2606 3559 1722 
Q 3559 1138 3384 741 
Q 3209 344 2892 140 
Q 2575 -63 2144 -63 
Q 1872 -63 1665 9 
Q 1459 81 1312 203 
Q 1166 325 1069 469 
L 1031 469 
Q 1041 347 1055 175 
Q 1069 3 1069 -125 
L 1069 -1531 
L 547 -1531 
L 547 3425 
L 975 3425 
L 1044 2919 
L 1069 2919 
Q 1169 3075 1312 3204 
Q 1456 3334 1664 3411 
Q 1872 3488 2156 3488 
z
M 2066 3050 
Q 1709 3050 1492 2912 
Q 1275 2775 1175 2501 
Q 1075 2228 1069 1816 
L 1069 1716 
Q 1069 1281 1164 981 
Q 1259 681 1479 525 
Q 1700 369 2072 369 
Q 2391 369 2603 541 
Q 2816 713 2920 1020 
Q 3025 1328 3025 1728 
Q 3025 2334 2789 2692 
Q 2553 3050 2066 3050 
z
" transform="scale(0.015625)"/>
       <path id="OpenSans-Regular-41" d="M 3491 0 
L 2928 1450 
L 1097 1450 
L 538 0 
L 0 0 
L 1788 4588 
L 2266 4588 
L 4041 0 
L 3491 0 
z
M 2769 1922 
L 2234 3363 
Q 2216 3419 2173 3547 
Q 2131 3675 2087 3812 
Q 2044 3950 2016 4034 
Q 1984 3906 1948 3779 
Q 1913 3653 1878 3545 
Q 1844 3438 1819 3363 
L 1275 1922 
L 2769 1922 
z
" transform="scale(0.015625)"/>
       <path id="OpenSans-Regular-78" d="M 1363 1753 
L 178 3425 
L 772 3425 
L 1675 2106 
L 2575 3425 
L 3163 3425 
L 1978 1753 
L 3228 0 
L 2634 0 
L 1675 1397 
L 709 0 
L 122 0 
L 1363 1753 
z
" transform="scale(0.015625)"/>
      </defs>
      <use xlink:href="#OpenSans-Regular-4f"/>
      <use xlink:href="#OpenSans-Regular-70" transform="translate(77.783203 0)"/>
      <use xlink:href="#OpenSans-Regular-65" transform="translate(138.964844 0)"/>
      <use xlink:href="#OpenSans-Regular-6e" transform="translate(195.117188 0)"/>
      <use xlink:href="#OpenSans-Regular-41" transform="translate(256.445312 0)"/>
      <use xlink:href="#OpenSans-Regular-6c" transform="translate(319.677734 0)"/>
      <use xlink:href="#OpenSans-Regular-65" transform="translate(344.921875 0)"/>
      <use xlink:href="#OpenSans-Regular-78" transform="translate(401.074219 0)"/>
     </g>
    </g>
    <g id="patch_36">
     <path d="M 89.946836 41.947969 
L 111.946836 41.947969 
L 111.946836 34.247969 
L 89.946836 34.247969 
z
" style="fill: #e1812c; stroke: #000000; stroke-linejoin: miter"/>
    </g>
    <g id="text_47">
     <!-- Scopus -->
     <g style="fill: #262626" transform="translate(120.746836 41.947969) scale(0.11 -0.11)">
      <defs>
       <path id="OpenSans-Regular-53" d="M 3203 1216 
Q 3203 809 3001 523 
Q 2800 238 2437 87 
Q 2075 -63 1584 -63 
Q 1325 -63 1094 -38 
Q 863 -13 669 34 
Q 475 81 328 150 
L 328 659 
Q 563 563 900 480 
Q 1238 397 1606 397 
Q 1950 397 2187 489 
Q 2425 581 2548 754 
Q 2672 928 2672 1172 
Q 2672 1406 2569 1564 
Q 2466 1722 2227 1851 
Q 1988 1981 1575 2128 
Q 1284 2231 1062 2354 
Q 841 2478 691 2634 
Q 541 2791 464 2997 
Q 388 3203 388 3469 
Q 388 3834 573 4095 
Q 759 4356 1089 4495 
Q 1419 4634 1847 4634 
Q 2213 4634 2523 4565 
Q 2834 4497 3094 4381 
L 2928 3925 
Q 2681 4028 2404 4097 
Q 2128 4166 1834 4166 
Q 1541 4166 1339 4080 
Q 1138 3994 1031 3837 
Q 925 3681 925 3466 
Q 925 3225 1026 3065 
Q 1128 2906 1351 2782 
Q 1575 2659 1944 2525 
Q 2347 2378 2628 2214 
Q 2909 2050 3056 1814 
Q 3203 1578 3203 1216 
z
" transform="scale(0.015625)"/>
      </defs>
      <use xlink:href="#OpenSans-Regular-53"/>
      <use xlink:href="#OpenSans-Regular-63" transform="translate(54.833984 0)"/>
      <use xlink:href="#OpenSans-Regular-6f" transform="translate(102.734375 0)"/>
      <use xlink:href="#OpenSans-Regular-70" transform="translate(162.890625 0)"/>
      <use xlink:href="#OpenSans-Regular-75" transform="translate(224.072266 0)"/>
      <use xlink:href="#OpenSans-Regular-73" transform="translate(285.400391 0)"/>
     </g>
    </g>
    <g id="line2d_69">
     <path d="M 89.946836 54.587656 
L 100.946836 54.587656 
L 111.946836 54.587656 
" style="fill: none; stroke: #1f77b4; stroke-width: 1.5; stroke-linecap: round"/>
    </g>
    <g id="text_48">
     <!-- OpenAlex (Cumulative) -->
     <g style="fill: #262626" transform="translate(120.746836 58.437656) scale(0.11 -0.11)">
      <defs>
       <path id="OpenSans-Regular-28" d="M 256 1753 
Q 256 2281 357 2781 
Q 459 3281 668 3734 
Q 878 4188 1197 4569 
L 1694 4569 
Q 1241 3975 1012 3250 
Q 784 2525 784 1759 
Q 784 1259 886 773 
Q 988 288 1189 -162 
Q 1391 -613 1688 -1013 
L 1197 -1013 
Q 878 -638 668 -195 
Q 459 247 357 740 
Q 256 1234 256 1753 
z
" transform="scale(0.015625)"/>
       <path id="OpenSans-Regular-43" d="M 2578 4166 
Q 2200 4166 1898 4036 
Q 1597 3906 1386 3661 
Q 1175 3416 1062 3069 
Q 950 2722 950 2288 
Q 950 1713 1129 1289 
Q 1309 866 1667 634 
Q 2025 403 2563 403 
Q 2869 403 3139 454 
Q 3409 506 3666 584 
L 3666 122 
Q 3416 28 3141 -17 
Q 2866 -63 2488 -63 
Q 1791 -63 1323 226 
Q 856 516 623 1044 
Q 391 1572 391 2291 
Q 391 2809 536 3239 
Q 681 3669 961 3981 
Q 1241 4294 1648 4464 
Q 2056 4634 2584 4634 
Q 2931 4634 3253 4565 
Q 3575 4497 3834 4369 
L 3622 3919 
Q 3403 4019 3142 4092 
Q 2881 4166 2578 4166 
z
" transform="scale(0.015625)"/>
       <path id="OpenSans-Regular-76" d="M 1300 0 
L 0 3425 
L 556 3425 
L 1309 1353 
Q 1388 1141 1469 884 
Q 1550 628 1581 472 
L 1603 472 
Q 1641 628 1728 886 
Q 1816 1144 1888 1353 
L 2641 3425 
L 3197 3425 
L 1894 0 
L 1300 0 
z
" transform="scale(0.015625)"/>
       <path id="OpenSans-Regular-29" d="M 1631 1759 
Q 1631 1238 1529 742 
Q 1428 247 1220 -197 
Q 1013 -641 691 -1013 
L 200 -1013 
Q 500 -616 701 -162 
Q 903 291 1004 777 
Q 1106 1263 1106 1763 
Q 1106 2272 1003 2765 
Q 900 3259 698 3715 
Q 497 4172 194 4569 
L 691 4569 
Q 1013 4184 1220 3732 
Q 1428 3281 1529 2782 
Q 1631 2284 1631 1759 
z
" transform="scale(0.015625)"/>
      </defs>
      <use xlink:href="#OpenSans-Regular-4f"/>
      <use xlink:href="#OpenSans-Regular-70" transform="translate(77.783203 0)"/>
      <use xlink:href="#OpenSans-Regular-65" transform="translate(138.964844 0)"/>
      <use xlink:href="#OpenSans-Regular-6e" transform="translate(195.117188 0)"/>
      <use xlink:href="#OpenSans-Regular-41" transform="translate(256.445312 0)"/>
      <use xlink:href="#OpenSans-Regular-6c" transform="translate(319.677734 0)"/>
      <use xlink:href="#OpenSans-Regular-65" transform="translate(344.921875 0)"/>
      <use xlink:href="#OpenSans-Regular-78" transform="translate(401.074219 0)"/>
      <use xlink:href="#OpenSans-Regular-20" transform="translate(453.417969 0)"/>
      <use xlink:href="#OpenSans-Regular-28" transform="translate(479.394531 0)"/>
      <use xlink:href="#OpenSans-Regular-43" transform="translate(508.886719 0)"/>
      <use xlink:href="#OpenSans-Regular-75" transform="translate(571.875 0)"/>
      <use xlink:href="#OpenSans-Regular-6d" transform="translate(633.203125 0)"/>
      <use xlink:href="#OpenSans-Regular-75" transform="translate(725.78125 0)"/>
      <use xlink:href="#OpenSans-Regular-6c" transform="translate(787.109375 0)"/>
      <use xlink:href="#OpenSans-Regular-61" transform="translate(812.353516 0)"/>
      <use xlink:href="#OpenSans-Regular-74" transform="translate(867.919922 0)"/>
      <use xlink:href="#OpenSans-Regular-69" transform="translate(903.564453 0)"/>
      <use xlink:href="#OpenSans-Regular-76" transform="translate(928.808594 0)"/>
      <use xlink:href="#OpenSans-Regular-65" transform="translate(978.759766 0)"/>
      <use xlink:href="#OpenSans-Regular-29" transform="translate(1034.912109 0)"/>
     </g>
    </g>
    <g id="line2d_70">
     <path d="M 89.946836 71.077344 
L 100.946836 71.077344 
L 111.946836 71.077344 
" style="fill: none; stroke: #ff7f0e; stroke-width: 1.5; stroke-linecap: round"/>
    </g>
    <g id="text_49">
     <!-- Scopus (Cumulative) -->
     <g style="fill: #262626" transform="translate(120.746836 74.927344) scale(0.11 -0.11)">
      <use xlink:href="#OpenSans-Regular-53"/>
      <use xlink:href="#OpenSans-Regular-63" transform="translate(54.833984 0)"/>
      <use xlink:href="#OpenSans-Regular-6f" transform="translate(102.734375 0)"/>
      <use xlink:href="#OpenSans-Regular-70" transform="translate(162.890625 0)"/>
      <use xlink:href="#OpenSans-Regular-75" transform="translate(224.072266 0)"/>
      <use xlink:href="#OpenSans-Regular-73" transform="translate(285.400391 0)"/>
      <use xlink:href="#OpenSans-Regular-20" transform="translate(333.056641 0)"/>
      <use xlink:href="#OpenSans-Regular-28" transform="translate(359.033203 0)"/>
      <use xlink:href="#OpenSans-Regular-43" transform="translate(388.525391 0)"/>
      <use xlink:href="#OpenSans-Regular-75" transform="translate(451.513672 0)"/>
      <use xlink:href="#OpenSans-Regular-6d" transform="translate(512.841797 0)"/>
      <use xlink:href="#OpenSans-Regular-75" transform="translate(605.419922 0)"/>
      <use xlink:href="#OpenSans-Regular-6c" transform="translate(666.748047 0)"/>
      <use xlink:href="#OpenSans-Regular-61" transform="translate(691.992188 0)"/>
      <use xlink:href="#OpenSans-Regular-74" transform="translate(747.558594 0)"/>
      <use xlink:href="#OpenSans-Regular-69" transform="translate(783.203125 0)"/>
      <use xlink:href="#OpenSans-Regular-76" transform="translate(808.447266 0)"/>
      <use xlink:href="#OpenSans-Regular-65" transform="translate(858.398438 0)"/>
      <use xlink:href="#OpenSans-Regular-29" transform="translate(914.550781 0)"/>
     </g>
    </g>
   </g>
  </g>
 </g>
 <defs>
  <clipPath id="pd6e41d0caf">
   <rect x="50.06875" y="7.2" width="790.67172" height="365.26"/>
  </clipPath>
 </defs>
</svg>
